<svg id="eZAWuI13xKn1" xmlns="http://www.w3.org/2000/svg" xmlns:xlink="http://www.w3.org/1999/xlink" viewBox="0 0 120 100" shape-rendering="geometricPrecision" text-rendering="geometricPrecision">
<style><![CDATA[
#eZAWuI13xKn4_to {animation: eZAWuI13xKn4_to__to 2000ms linear 1 normal forwards}@keyframes eZAWuI13xKn4_to__to { 0% {transform: translate(-56.220696px,-56.866454px);animation-timing-function: cubic-bezier(0.19,1,0.22,1)} 100% {transform: translate(10.4208px,14.206px)}} #eZAWuI13xKn4_tr {animation: eZAWuI13xKn4_tr__tr 2000ms linear 1 normal forwards}@keyframes eZAWuI13xKn4_tr__tr { 0% {transform: rotate(-48.551804deg);animation-timing-function: cubic-bezier(0.19,1,0.22,1)} 100% {transform: rotate(0.0424deg)}} #eZAWuI13xKn12 {animation: eZAWuI13xKn12_c_o 2000ms linear 1 normal forwards}@keyframes eZAWuI13xKn12_c_o { 0% {opacity: 0} 20% {opacity: 0} 80% {opacity: 0.998} 100% {opacity: 0.998}} #eZAWuI13xKn13_to {animation: eZAWuI13xKn13_to__to 2000ms linear 1 normal forwards}@keyframes eZAWuI13xKn13_to__to { 0% {transform: translate(132.805706px,-132.80589px);animation-timing-function: cubic-bezier(0.19,1,0.22,1)} 80% {transform: translate(-11.9495px,11.9495px)} 100% {transform: translate(-11.9495px,11.9495px)}}
]]></style>
<g transform="translate(-48.207203-95.766358)"><g transform="matrix(.707107-.27388 0.707107 0.27388-111.12 145.369)"><g id="eZAWuI13xKn4_to" transform="translate(-56.220696,-56.866454)"><g id="eZAWuI13xKn4_tr" transform="rotate(-48.551804)"><g transform="skewX(0.084799) skewY(0) scale(0.906742,0.906741) translate(0,0)"><g><rect width="65.4668" height="87.3774" rx="7.63817" ry="5.48887" transform="translate(71.5534 162.998)" opacity="0.998" stroke="#040404" stroke-width="2.24165" stroke-linecap="round"/><rect width="66.1458" height="87.6905" rx="7.63817" ry="5.48887" transform="translate(71.9271 162.152)" opacity="0.998" fill="#2c4251" stroke="#040404" stroke-width="1.53283" stroke-linecap="round"/></g><g><rect width="28.7262" height="9.82738" rx="2.244441" ry="2.244441" transform="translate(88.649 159.882)" opacity="0.998" fill="#010101" stroke="#040404" stroke-width="0.469596" stroke-linecap="round"/><rect width="28.7262" height="9.82738" rx="2.501102" ry="13.990984" transform="translate(90.6369 158.372)" opacity="0.998" fill="#b6c649" stroke="#040404" stroke-width="1.53283" stroke-linecap="round"/></g></g></g></g><g transform="translate(1.23429-4.97606)"><rect id="eZAWuI13xKn12" width="38.2868" height="5.34115" rx="0.869913" ry="5.035203" transform="matrix(.603683 0.797224-.789431 0.613839 95.39588 191.169442)" opacity="0" fill-opacity="0.334677" stroke-width="2.03268" stroke-linecap="round"/><g id="eZAWuI13xKn13_to" transform="translate(132.805706,-132.80589)"><g transform="rotate(-2.103921) skewX(0.166678) skewY(0) scale(1.03884,0.962614) translate(0,0)"><g><path d="M189.48571,99.085607c-.21196-.31647-1.57885.62514-3.06558,2.111873l-82.46092,82.46094c-1.48673,1.48672-2.51251,2.93779-2.30056,3.25426L121.5129,216.5558c.21196.31646,1.57886-.62514,3.06558-2.11187l64.54207-64.54207c2.837533-2.837532,5.124768-6.176243,6.7459-9.84709l6.26858-14.1944c1.307275-2.960155,1.008201-6.383494-.79257-9.07212Z" opacity="0.997" fill="#ed6a5a" stroke="#040404" stroke-width="2.0326" stroke-linecap="round"/><path d="M202.73823,118.57862l-17.78606,17.71924c-1.8677,1.86068-3.89675,3.6958-2.6916,4.0384l8.2129,8.2129.20506-.20507c2.63558-2.63573,4.71862-5.77834,6.14366-9.26873l6.42184-15.16756c.93464-2.2889.80773-3.02928-.5058-5.32918Z" opacity="0.998" fill="#3e3e3e" fill-opacity="0.334677" stroke="#040404" stroke-width="1.38989" stroke-linecap="round"/></g><g transform="matrix(.870364-.129636-.129636 0.870364 33.9504 43.7091)"><rect width="22.8163" height="6.25794" rx="1.247792" ry="5.123282" transform="matrix(.625262 0.780415-.707107 0.707107 158.784612 131.996523)" opacity="0.998" stroke-width="1.61979" stroke-linecap="round"/><rect width="11.4081" height="6.25794" rx="1.247792" ry="5.123282" transform="matrix(.625262 0.780415-.707107 0.707107 148.312004 142.469132)" opacity="0.998" stroke-width="1.61979" stroke-linecap="round"/><rect width="22.8163" height="6.25794" rx="1.247792" ry="5.123282" transform="matrix(.625262 0.780415-.707107 0.707107 137.691963 153.089172)" opacity="0.998" stroke-width="1.61979" stroke-linecap="round"/></g></g></g></g></g></g></svg>
